<svg xmlns="http://www.w3.org/2000/svg" width="600" height="180" viewBox="0 0 600 180" role="img" aria-label="SoundCloud random recent like">
    <defs>
        <linearGradient id="bgGrad" x1="0" x2="0" y1="0" y2="1">
        <stop offset="0" stop-color="#111111"/>
        <stop offset="1" stop-color="#0B0B0B"/>
        </linearGradient>
        <filter id="shadow" x="-20%" y="-20%" width="140%" height="140%">
        <feDropShadow dx="0" dy="10" stdDeviation="14" flood-color="#000" flood-opacity="0.45"/>
        </filter>
    </defs>

    <a href="https://soundcloud.com/user-342590213/video-game-lover" target="_blank" rel="noopener noreferrer">
        <rect x="12" y="12" width="576" height="156" rx="18" fill="url(#bgGrad)" stroke="#1F1F1F" filter="url(#shadow)"/>

        <!-- Header -->
        <text x="28" y="34" fill="#FF5500" font-family="ui-sans-serif, system-ui, -apple-system, Segoe UI, Roboto, Helvetica, Arial" font-size="14" font-weight="800" letter-spacing="0.2">
        SOUNDCLOUD
        </text>
        <text x="572" y="34" fill="#B3B3B3" text-anchor="end" font-family="ui-sans-serif, system-ui, -apple-system, Segoe UI, Roboto, Helvetica, Arial" font-size="12" font-weight="600">
        @radkinz
        </text>

        <!-- Waveform accent -->
        <g transform="translate(0,10)">
        <rect x="28" y="68" width="6" height="10" rx="3" fill="#FF5500" opacity="0.75"/>
        <rect x="38" y="52" width="6" height="26" rx="3" fill="#FF5500" opacity="0.75"/>
        <rect x="48" y="64" width="6" height="14" rx="3" fill="#FF5500" opacity="0.75"/>
        <rect x="58" y="44" width="6" height="34" rx="3" fill="#FF5500" opacity="0.75"/>
        <rect x="68" y="60" width="6" height="18" rx="3" fill="#FF5500" opacity="0.75"/>
        <rect x="78" y="36" width="6" height="42" rx="3" fill="#FF5500" opacity="0.75"/>
        <rect x="88" y="56" width="6" height="22" rx="3" fill="#FF5500" opacity="0.75"/>
        <rect x="98" y="48" width="6" height="30" rx="3" fill="#FF5500" opacity="0.75"/>
        <rect x="108" y="66" width="6" height="12" rx="3" fill="#FF5500" opacity="0.75"/>
        <rect x="118" y="40" width="6" height="38" rx="3" fill="#FF5500" opacity="0.75"/>
        <rect x="128" y="62" width="6" height="16" rx="3" fill="#FF5500" opacity="0.75"/>
        <rect x="138" y="50" width="6" height="28" rx="3" fill="#FF5500" opacity="0.75"/>
        <rect x="148" y="58" width="6" height="20" rx="3" fill="#FF5500" opacity="0.75"/>
        <rect x="158" y="34" width="6" height="44" rx="3" fill="#FF5500" opacity="0.75"/>
        <rect x="168" y="64" width="6" height="14" rx="3" fill="#FF5500" opacity="0.75"/>
        <rect x="178" y="52" width="6" height="26" rx="3" fill="#FF5500" opacity="0.75"/>
        <rect x="188" y="68" width="6" height="10" rx="3" fill="#FF5500" opacity="0.75"/>
        </g>

        <!-- Title / Artist -->
        <text x="28" y="114" fill="#F5F5F5" font-family="ui-sans-serif, system-ui, -apple-system, Segoe UI, Roboto, Helvetica, Arial" font-size="22" font-weight="800">
        Videogame lover :)
        </text>
        <text x="28" y="142" fill="#B3B3B3" font-family="ui-sans-serif, system-ui, -apple-system, Segoe UI, Roboto, Helvetica, Arial" font-size="14" font-weight="650">
        Noah
        </text>

        <!-- Footer (anchored to bottom) -->
        <text x="28" y="154" fill="#B3B3B3" font-family="ui-sans-serif, system-ui, -apple-system, Segoe UI, Roboto, Helvetica, Arial" font-size="12">
        Recently played
        </text>
        <text x="572" y="154" fill="#B3B3B3" text-anchor="end" font-family="ui-sans-serif, system-ui, -apple-system, Segoe UI, Roboto, Helvetica, Arial" font-size="12">
        Updated 2026-01-02 19:30 UTC
        </text>

    </a>
    </svg>
    