<svg xmlns="http://www.w3.org/2000/svg" width="720" height="160" viewBox="0 0 720 160" role="img" aria-label="SoundCloud random recent like">
  <defs>
    <linearGradient id="bgGrad" x1="0" x2="0" y1="0" y2="1">
      <stop offset="0" stop-color="#111111"/>
      <stop offset="1" stop-color="#0B0B0B"/>
    </linearGradient>
    <filter id="shadow" x="-20%" y="-20%" width="140%" height="140%">
      <feDropShadow dx="0" dy="10" stdDeviation="14" flood-color="#000" flood-opacity="0.45"/>
    </filter>
  </defs>

  <a href="https://soundcloud.com/user-467741183/beauty-and-a-beat-valexus-remix" target="_blank">
    <rect x="12" y="12" width="696" height="136" rx="18" fill="url(#bgGrad)" stroke="#1F1F1F" filter="url(#shadow)"/>

    <!-- Header -->
    <text x="28" y="34" fill="#FF5500" font-family="ui-sans-serif, system-ui, -apple-system, Segoe UI, Roboto, Helvetica, Arial" font-size="14" font-weight="800" letter-spacing="0.2">
      SOUNDCLOUD
    </text>
    <text x="692" y="34" fill="#B3B3B3" text-anchor="end" font-family="ui-sans-serif, system-ui, -apple-system, Segoe UI, Roboto, Helvetica, Arial" font-size="12" font-weight="600">
      @radkinz
    </text>

    <!-- Waveform accent -->
    <g transform="translate(0,0)">
      <rect x="28" y="68" width="6" height="10" rx="3" fill="#FF5500" opacity="0.95"/>
        <rect x="38" y="52" width="6" height="26" rx="3" fill="#FF5500" opacity="0.95"/>
        <rect x="48" y="64" width="6" height="14" rx="3" fill="#FF5500" opacity="0.95"/>
        <rect x="58" y="44" width="6" height="34" rx="3" fill="#FF5500" opacity="0.95"/>
        <rect x="68" y="60" width="6" height="18" rx="3" fill="#FF5500" opacity="0.95"/>
        <rect x="78" y="36" width="6" height="42" rx="3" fill="#FF5500" opacity="0.95"/>
        <rect x="88" y="56" width="6" height="22" rx="3" fill="#FF5500" opacity="0.95"/>
        <rect x="98" y="48" width="6" height="30" rx="3" fill="#FF5500" opacity="0.95"/>
        <rect x="108" y="66" width="6" height="12" rx="3" fill="#FF5500" opacity="0.95"/>
        <rect x="118" y="40" width="6" height="38" rx="3" fill="#FF5500" opacity="0.95"/>
        <rect x="128" y="62" width="6" height="16" rx="3" fill="#FF5500" opacity="0.95"/>
        <rect x="138" y="50" width="6" height="28" rx="3" fill="#FF5500" opacity="0.95"/>
        <rect x="148" y="58" width="6" height="20" rx="3" fill="#FF5500" opacity="0.95"/>
        <rect x="158" y="34" width="6" height="44" rx="3" fill="#FF5500" opacity="0.95"/>
        <rect x="168" y="64" width="6" height="14" rx="3" fill="#FF5500" opacity="0.95"/>
        <rect x="178" y="52" width="6" height="26" rx="3" fill="#FF5500" opacity="0.95"/>
        <rect x="188" y="68" width="6" height="10" rx="3" fill="#FF5500" opacity="0.95"/>
    </g>

    <!-- Title / Artist -->
    <text x="28" y="92" fill="#F5F5F5" font-family="ui-sans-serif, system-ui, -apple-system, Segoe UI, Roboto, Helvetica, Arial" font-size="22" font-weight="800">
      Beauty And A Beat (Valexus Remix)
    </text>
    <text x="28" y="118" fill="#B3B3B3" font-family="ui-sans-serif, system-ui, -apple-system, Segoe UI, Roboto, Helvetica, Arial" font-size="14" font-weight="650">
      Valexus
    </text>

    <!-- Footer -->
    <text x="28" y="142" fill="#B3B3B3" font-family="ui-sans-serif, system-ui, -apple-system, Segoe UI, Roboto, Helvetica, Arial" font-size="12">
      Random pick from your last 20 likes
    </text>
    <text x="692" y="142" fill="#B3B3B3" text-anchor="end" font-family="ui-sans-serif, system-ui, -apple-system, Segoe UI, Roboto, Helvetica, Arial" font-size="12">
      Updated 2025-12-31 04:08 UTC
    </text>

    <!-- Orange corner tag -->
    <path d="M650 24 L696 24 L696 70 Z" fill="#FF5500" opacity="0.9"/>
    <text x="686" y="46" fill="#111" text-anchor="end" font-family="ui-sans-serif, system-ui, -apple-system, Segoe UI, Roboto, Helvetica, Arial" font-size="12" font-weight="900">♥</text>
  </a>
</svg>
